  0
SECTION
  2
HEADER
  9
$ACADVER
  1
AC1015
  9
$ACADMAINTVER
 70
    20
  9
$DWGCODEPAGE
  3
ANSI_1252
  9
$INSBASE
 10
0.0
 20
0.0
 30
0.0
  9
$EXTMIN
 10
602115.796875
 20
961637.7187500001
 30
0.0
  9
$EXTMAX
 10
605457.53125
 20
964469.4531250001
 30
0.0
  9
$LIMMIN
 10
0.0
 20
0.0
  9
$LIMMAX
 10
12.0
 20
9.0
  9
$ORTHOMODE
 70
     1
  9
$REGENMODE
 70
     1
  9
$FILLMODE
 70
     1
  9
$QTEXTMODE
 70
     0
  9
$MIRRTEXT
 70
     0
  9
$LTSCALE
 40
1.0
  9
$ATTMODE
 70
     1
  9
$TEXTSIZE
 40
0.2
  9
$TRACEWID
 40
0.05
  9
$TEXTSTYLE
  7
Standard
  9
$CLAYER
  8
0
  9
$CELTYPE
  6
Continuous
  9
$CECOLOR
 62
   256
  9
$CELTSCALE
 40
1.0
  9
$DISPSILH
 70
     0
  9
$DIMSCALE
 40
1.0
  9
$DIMASZ
 40
0.18
  9
$DIMEXO
 40
0.0625
  9
$DIMDLI
 40
0.38
  9
$DIMRND
 40
0.0
  9
$DIMDLE
 40
0.0
  9
$DIMEXE
 40
0.18
  9
$DIMTP
 40
0.0
  9
$DIMTM
 40
0.0
  9
$DIMTXT
 40
0.18
  9
$DIMCEN
 40
0.09
  9
$DIMTSZ
 40
0.0
  9
$DIMTOL
 70
     0
  9
$DIMLIM
 70
     0
  9
$DIMTIH
 70
     1
  9
$DIMTOH
 70
     1
  9
$DIMSE1
 70
     0
  9
$DIMSE2
 70
     0
  9
$DIMTAD
 70
     0
  9
$DIMZIN
 70
     0
  9
$DIMBLK
  1

  9
$DIMASO
 70
     1
  9
$DIMSHO
 70
     1
  9
$DIMPOST
  1

  9
$DIMAPOST
  1

  9
$DIMALT
 70
     0
  9
$DIMALTD
 70
     2
  9
$DIMALTF
 40
25.4
  9
$DIMLFAC
 40
1.0
  9
$DIMTOFL
 70
     0
  9
$DIMTVP
 40
0.0
  9
$DIMTIX
 70
     0
  9
$DIMSOXD
 70
     0
  9
$DIMSAH
 70
     0
  9
$DIMBLK1
  1

  9
$DIMBLK2
  1

  9
$DIMSTYLE
  2
Standard
  9
$DIMCLRD
 70
     0
  9
$DIMCLRE
 70
     0
  9
$DIMCLRT
 70
     0
  9
$DIMTFAC
 40
1.0
  9
$DIMGAP
 40
0.09
  9
$DIMJUST
 70
     0
  9
$DIMSD1
 70
     0
  9
$DIMSD2
 70
     0
  9
$DIMTOLJ
 70
     1
  9
$DIMTZIN
 70
     0
  9
$DIMALTZ
 70
     0
  9
$DIMALTTZ
 70
     0
  9
$DIMUPT
 70
     0
  9
$DIMDEC
 70
     4
  9
$DIMTDEC
 70
     4
  9
$DIMALTU
 70
     2
  9
$DIMALTTD
 70
     2
  9
$DIMTXSTY
  7
Standard
  9
$DIMAUNIT
 70
     0
  9
$DIMADEC
 70
     0
  9
$DIMALTRND
 40
0.0
  9
$DIMAZIN
 70
     0
  9
$DIMDSEP
 70
    46
  9
$DIMATFIT
 70
     3
  9
$DIMFRAC
 70
     0
  9
$DIMLDRBLK
  1

  9
$DIMLUNIT
 70
     2
  9
$DIMLWD
 70
    -2
  9
$DIMLWE
 70
    -2
  9
$DIMTMOVE
 70
     0
  9
$LUNITS
 70
     2
  9
$LUPREC
 70
     4
  9
$SKETCHINC
 40
0.1
  9
$FILLETRAD
 40
0.0
  9
$AUNITS
 70
     0
  9
$AUPREC
 70
     0
  9
$MENU
  1
.
  9
$ELEVATION
 40
0.0
  9
$PELEVATION
 40
0.0
  9
$THICKNESS
 40
0.0
  9
$LIMCHECK
 70
     0
  9
$CHAMFERA
 40
0.0
  9
$CHAMFERB
 40
0.0
  9
$CHAMFERC
 40
0.0
  9
$CHAMFERD
 40
0.0
  9
$SKPOLY
 70
     0
  9
$TDCREATE
 40
2454957.424852315
  9
$TDUCREATE
 40
2454957.383185649
  9
$TDUPDATE
 40
2456297.477353959
  9
$TDUUPDATE
 40
2456297.435687292
  9
$TDINDWG
 40
0.4710542014
  9
$TDUSRTIMER
 40
0.4710542014
  9
$USRTIMER
 70
     1
  9
$ANGBASE
 50
0.0
  9
$ANGDIR
 70
     0
  9
$PDMODE
 70
     0
  9
$PDSIZE
 40
0.0
  9
$PLINEWID
 40
0.0
  9
$SPLFRAME
 70
     0
  9
$SPLINETYPE
 70
     6
  9
$SPLINESEGS
 70
     8
  9
$HANDSEED
  5
B1CE
  9
$SURFTAB1
 70
     6
  9
$SURFTAB2
 70
     6
  9
$SURFTYPE
 70
     6
  9
$SURFU
 70
     6
  9
$SURFV
 70
     6
  9
$UCSBASE
  2

  9
$UCSNAME
  2

  9
$UCSORG
 10
0.0
 20
0.0
 30
0.0
  9
$UCSXDIR
 10
1.0
 20
0.0
 30
0.0
  9
$UCSYDIR
 10
0.0
 20
1.0
 30
0.0
  9
$UCSORTHOREF
  2

  9
$UCSORTHOVIEW
 70
     0
  9
$UCSORGTOP
 10
0.0
 20
0.0
 30
0.0
  9
$UCSORGBOTTOM
 10
0.0
 20
0.0
 30
0.0
  9
$UCSORGLEFT
 10
0.0
 20
0.0
 30
0.0
  9
$UCSORGRIGHT
 10
0.0
 20
0.0
 30
0.0
  9
$UCSORGFRONT
 10
0.0
 20
0.0
 30
0.0
  9
$UCSORGBACK
 10
0.0
 20
0.0
 30
0.0
  9
$PUCSBASE
  2

  9
$PUCSNAME
  2

  9
$PUCSORG
 10
0.0
 20
0.0
 30
0.0
  9
$PUCSXDIR
 10
1.0
 20
0.0
 30
0.0
  9
$PUCSYDIR
 10
0.0
 20
1.0
 30
0.0
  9
$PUCSORTHOREF
  2

  9
$PUCSORTHOVIEW
 70
     0
  9
$PUCSORGTOP
 10
0.0
 20
0.0
 30
0.0
  9
$PUCSORGBOTTOM
 10
0.0
 20
0.0
 30
0.0
  9
$PUCSORGLEFT
 10
0.0
 20
0.0
 30
0.0
  9
$PUCSORGRIGHT
 10
0.0
 20
0.0
 30
0.0
  9
$PUCSORGFRONT
 10
0.0
 20
0.0
 30
0.0
  9
$PUCSORGBACK
 10
0.0
 20
0.0
 30
0.0
  9
$USERI1
 70
     0
  9
$USERI2
 70
     0
  9
$USERI3
 70
     0
  9
$USERI4
 70
     0
  9
$USERI5
 70
     0
  9
$USERR1
 40
0.0
  9
$USERR2
 40
0.0
  9
$USERR3
 40
0.0
  9
$USERR4
 40
0.0
  9
$USERR5
 40
0.0
  9
$WORLDVIEW
 70
     1
  9
$SHADEDGE
 70
     3
  9
$SHADEDIF
 70
    70
  9
$TILEMODE
 70
     1
  9
$MAXACTVP
 70
    64
  9
$PINSBASE
 10
0.0
 20
0.0
 30
0.0
  9
$PLIMCHECK
 70
     0
  9
$PEXTMIN
 10
1.000000000000000E+20
 20
1.000000000000000E+20
 30
1.000000000000000E+20
  9
$PEXTMAX
 10
-1.000000000000000E+20
 20
-1.000000000000000E+20
 30
-1.000000000000000E+20
  9
$PLIMMIN
 10
0.0
 20
0.0
  9
$PLIMMAX
 10
12.0
 20
9.0
  9
$UNITMODE
 70
     0
  9
$VISRETAIN
 70
     1
  9
$PLINEGEN
 70
     0
  9
$PSLTSCALE
 70
     1
  9
$TREEDEPTH
 70
  3020
  9
$CMLSTYLE
  2
Standard
  9
$CMLJUST
 70
     0
  9
$CMLSCALE
 40
1.0
  9
$PROXYGRAPHICS
 70
     1
  9
$MEASUREMENT
 70
     0
  9
$CELWEIGHT
370
    -1
  9
$ENDCAPS
280
     0
  9
$JOINSTYLE
280
     0
  9
$LWDISPLAY
290
     0
  9
$INSUNITS
 70
     6
  9
$HYPERLINKBASE
  1

  9
$STYLESHEET
  1

  9
$XEDIT
290
     1
  9
$CEPSNTYPE
380
     0
  9
$PSTYLEMODE
290
     1
  9
$FINGERPRINTGUID
  2
{E4D93A1D-E743-440C-AF20-08095301FC97}
  9
$VERSIONGUID
  2
{4ABEB1F0-D49C-4879-85A9-6A4C0FB530C9}
  9
$EXTNAMES
290
     1
  9
$PSVPSCALE
 40
0.0
  9
$OLESTARTUP
290
     0
  0
ENDSEC
  0
SECTION
  2
CLASSES
  0
CLASS
  1
ACDBDICTIONARYWDFLT
  2
AcDbDictionaryWithDefault
  3
ObjectDBX Classes
 90
        0
280
     0
281
     0
  0
CLASS
  1
TABLESTYLE
  2
AcDbTableStyle
  3
ObjectDBX Classes
 90
     2047
280
     0
281
     0
  0
CLASS
  1
DICTIONARYVAR
  2
AcDbDictionaryVar
  3
ObjectDBX Classes
 90
        0
280
     0
281
     0
  0
CLASS
  1
ACDBPLACEHOLDER
  2
AcDbPlaceHolder
  3
ObjectDBX Classes
 90
        0
280
     0
281
     0
  0
CLASS
  1
LAYOUT
  2
AcDbLayout
  3
ObjectDBX Classes
 90
        0
280
     0
281
     0
  0
CLASS
  1
SORTENTSTABLE
  2
AcDbSortentsTable
  3
ObjectDBX Classes
 90
        0
280
     0
281
     0
  0
ENDSEC
  0
SECTION
  2
TABLES
  0
TABLE
  2
VPORT
  5
1F
330
0
100
AcDbSymbolTable
 70
     6
  0
VPORT
  5
B1C7
330
1F
100
AcDbSymbolTableRecord
100
AcDbViewportTableRecord
  2
*Active
 70
     0
 10
0.0
 20
0.0
 11
1.0
 21
1.0
 12
603786.6640625001
 22
963053.5859375001
 13
0.0
 23
0.0
 14
1.0
 24
1.0
 15
0.0
 25
0.0
 16
0.0
 26
0.0
 36
1.0
 17
0.0
 27
0.0
 37
0.0
 40
2854.418495493941
 41
1.635026737967914
 42
50.0
 43
0.0
 44
0.0
 50
0.0
 51
0.0
 71
     0
 72
   100
 73
     1
 74
     1
 75
     0
 76
     0
 77
     0
 78
     0
281
     0
 65
     1
110
0.0
120
0.0
130
0.0
111
1.0
121
0.0
131
0.0
112
0.0
122
1.0
132
0.0
 79
     0
146
0.0
  0
ENDTAB
  0
TABLE
  2
LTYPE
  5
1A
330
0
100
AcDbSymbolTable
 70
     2
  0
LTYPE
  5
1B
330
1A
100
AcDbSymbolTableRecord
100
AcDbLinetypeTableRecord
  2
ByBlock
 70
     0
  3

 72
    65
 73
     0
 40
0.0
  0
LTYPE
  5
1C
330
1A
100
AcDbSymbolTableRecord
100
AcDbLinetypeTableRecord
  2
ByLayer
 70
     0
  3

 72
    65
 73
     0
 40
0.0
  0
LTYPE
  5
A
330
1A
100
AcDbSymbolTableRecord
100
AcDbLinetypeTableRecord
  2
Continuous
 70
     0
  3
Solid line
 72
    65
 73
     0
 40
0.0
  0
ENDTAB
  0
TABLE
  2
LAYER
  5
12
102
{ACAD_XDICTIONARY
360
13
102
}
330
0
100
AcDbSymbolTable
 70
    21
  0
LAYER
  5
6
330
12
100
AcDbSymbolTableRecord
100
AcDbLayerTableRecord
  2
0
 70
     0
 62
     7
  6
Continuous
370
    -3
390
7
  0
LAYER
  5
247
330
12
100
AcDbSymbolTableRecord
100
AcDbLayerTableRecord
  2
FERR_LIN
 70
     0
 62
     7
  6
Continuous
370
    -3
390
7
  0
LAYER
  5
B161
330
12
100
AcDbSymbolTableRecord
100
AcDbLayerTableRecord
  2
GRIGLIA
 70
     0
 62
   150
  6
Continuous
370
    -3
390
7
  0
LAYER
  5
B16B
330
12
100
AcDbSymbolTableRecord
100
AcDbLayerTableRecord
  2
GRIGLIA_TESTI
 70
     0
 62
   150
  6
Continuous
370
    -3
390
7
  0
LAYER
  5
2CD
330
12
100
AcDbSymbolTableRecord
100
AcDbLayerTableRecord
  2
QUARTIERI
 70
     0
 62
    30
  6
Continuous
370
    -3
390
7
  0
LAYER
  5
2D6
330
12
100
AcDbSymbolTableRecord
100
AcDbLayerTableRecord
  2
QUARTIERI_TESTI
 70
     0
 62
    30
  6
Continuous
370
    -3
390
7
  0
LAYER
  5
2DA
330
12
100
AcDbSymbolTableRecord
100
AcDbLayerTableRecord
  2
SCARPATE
 70
     0
 62
   253
  6
Continuous
370
    -3
390
7
  0
LAYER
  5
33D
330
12
100
AcDbSymbolTableRecord
100
AcDbLayerTableRecord
  2
TOPONIMI
 70
     0
 62
   253
  6
Continuous
370
    -3
390
7
  0
LAYER
  5
376
330
12
100
AcDbSymbolTableRecord
100
AcDbLayerTableRecord
  2
TORRENTIRID
 70
     0
 62
   140
  6
Continuous
370
    -3
390
7
  0
LAYER
  5
B15E
330
12
100
AcDbSymbolTableRecord
100
AcDbLayerTableRecord
  2
TUSCS
 70
     0
 62
    50
  6
Continuous
370
    -3
390
7
  0
LAYER
  5
388
330
12
100
AcDbSymbolTableRecord
100
AcDbLayerTableRecord
  2
VESPOL
 70
     0
 62
   253
  6
Continuous
370
    -3
390
7
  0
LAYER
  5
3C0
330
12
100
AcDbSymbolTableRecord
100
AcDbLayerTableRecord
  2
VESPUN
 70
     0
 62
   253
  6
Continuous
370
    -3
390
7
  0
LAYER
  5
437
330
12
100
AcDbSymbolTableRecord
100
AcDbLayerTableRecord
  2
VIAB02NOMI
 70
     0
 62
   254
  6
Continuous
370
    -3
390
7
  0
LAYER
  5
1245
330
12
100
AcDbSymbolTableRecord
100
AcDbLayerTableRecord
  2
VIAB04
 70
     0
 62
     3
  6
Continuous
370
    -3
390
7
  0
LAYER
  5
3C0C
330
12
100
AcDbSymbolTableRecord
100
AcDbLayerTableRecord
  2
VIAB04_TESTI
 70
     0
 62
     3
  6
Continuous
370
    -3
390
7
  0
LAYER
  5
2E
330
12
100
AcDbSymbolTableRecord
100
AcDbLayerTableRecord
  2
VUOVIA
 70
     0
 62
   253
  6
Continuous
370
    -3
390
7
  0
LAYER
  5
B50
330
12
100
AcDbSymbolTableRecord
100
AcDbLayerTableRecord
  2
VIAB02NOMI_TESTI
 70
     0
 62
     1
  6
Continuous
370
    -3
390
7
  0
LAYER
  5
65DB
330
12
100
AcDbSymbolTableRecord
100
AcDbLayerTableRecord
  2
FABBRI
 70
     0
 62
    31
  6
Continuous
370
    -3
390
7
  0
LAYER
  5
A609
330
12
100
AcDbSymbolTableRecord
100
AcDbLayerTableRecord
  2
VIAB01
 70
     0
 62
     7
  6
Continuous
370
    -3
390
7
  0
LAYER
  5
7F4B
330
12
100
AcDbSymbolTableRecord
100
AcDbLayerTableRecord
  2
VESLIN
 70
     0
 62
   253
  6
Continuous
370
    -3
390
7
  0
ENDTAB
  0
TABLE
  2
STYLE
  5
17
330
0
100
AcDbSymbolTable
 70
     2
  0
STYLE
  5
18
330
17
100
AcDbSymbolTableRecord
100
AcDbTextStyleTableRecord
  2
Standard
 70
     0
 40
0.0
 41
1.0
 50
0.0
 71
     0
 42
0.2
  3
txt
  4

  0
STYLE
  5
B51
330
17
100
AcDbSymbolTableRecord
100
AcDbTextStyleTableRecord
  2
Arial
 70
     0
 40
0.0
 41
1.0
 50
0.0
 71
     0
 42
0.2
  3
ARIAL.TTF
  4

1001
ACAD
1000
Arial
1071
        0
  0
ENDTAB
  0
TABLE
  2
VIEW
  5
1D
330
0
100
AcDbSymbolTable
 70
     0
  0
ENDTAB
  0
TABLE
  2
UCS
  5
1E
330
0
100
AcDbSymbolTable
 70
     0
  0
ENDTAB
  0
TABLE
  2
APPID
  5
21
330
0
100
AcDbSymbolTable
 70
     1
  0
APPID
  5
16
330
21
100
AcDbSymbolTableRecord
100
AcDbRegAppTableRecord
  2
ACAD
 70
     0
  0
ENDTAB
  0
TABLE
  2
DIMSTYLE
  5
22
330
0
100
AcDbSymbolTable
 70
     2
100
AcDbDimStyleTable
 71
     0
  0
DIMSTYLE
105
2C
330
22
100
AcDbSymbolTableRecord
100
AcDbDimStyleTableRecord
  2
Standard
 70
     0
340
18
  0
ENDTAB
  0
TABLE
  2
BLOCK_RECORD
  5
1
330
0
100
AcDbSymbolTable
 70
     1
  0
BLOCK_RECORD
  5
2
102
{ACAD_XDICTIONARY
360
3
102
}
330
1
100
AcDbSymbolTableRecord
100
AcDbBlockTableRecord
  2
*Model_Space
340
C
  0
BLOCK_RECORD
  5
E
330
1
100
AcDbSymbolTableRecord
100
AcDbBlockTableRecord
  2
*Paper_Space
340
11
  0
ENDTAB
  0
ENDSEC
  0
SECTION
  2
BLOCKS
  0
BLOCK
  5
5
330
2
100
AcDbEntity
  8
0
100
AcDbBlockBegin
  2
*Model_Space
 70
     0
 10
0.0
 20
0.0
 30
0.0
  3
*Model_Space
  1

  0
ENDBLK
  5
B
330
2
100
AcDbEntity
  8
0
100
AcDbBlockEnd
  0
BLOCK
  5
F
330
E
100
AcDbEntity
 67
     1
  8
0
100
AcDbBlockBegin
  2
*Paper_Space
 70
     0
 10
0.0
 20
0.0
 30
0.0
  3
*Paper_Space
  1

  0
ENDBLK
  5
10
330
E
100
AcDbEntity
 67
     1
  8
0
100
AcDbBlockEnd
  0
ENDSEC
  0
SECTION
  2
ENTITIES
  0
LWPOLYLINE
  5
2D
330
2
100
AcDbEntity
  8
VUOVIA
100
AcDbPolyline
 90
       33
 70
     0
 43
0.0
 10
605067.461566588
 20
964463.8900049555
 10
605066.1518000001
 20
964456.5304000005
 10
605063.7647000002
 20
964450.0256000032
 10
605062.2284000013
 20
964446.8836000022
 10
605060.9081000006
 20
964444.3896999993
 10
605059.7345000003
 20
964441.822400002
 10
605058.2675000019
 20
964439.0351000019
 10
605056.7272000005
 20
964436.614600001
 10
605054.8201000011
 20
964434.5607999992
 10
605053.8715000023
 20
964433.7307999991
 10
605053.0597000011
 20
964433.0204000027
 10
605051.8126999996
 20
964432.2869000006
 10
605050.1256999997
 20
964431.4801000003
 10
605048.9832999995
 20
964431.1649000012
 10
605047.9984999998
 20
964430.8933000006
 10
605046.7014000006
 20
964430.8231000024
 10
605045.2846000009
 20
964430.7466000022
 10
605042.0571999997
 20
964430.4531999994
 10
605035.9438000005
 20
964430.1807000005
 10
605034.2199999998
 20
964429.9991999995
 10
605029.2704999996
 20
964429.9230000022
 10
605023.8299000003
 20
964430.5518999994
 10
605019.5698000006
 20
964431.2432000004
 10
605014.9455999993
 20
964432.5893000011
 10
605010.626600001
 20
964434.2849000024
 10
605005.5176000008
 20
964436.2206999995
 10
605001.8887000018
 20
964438.1926000008
 10
604998.1287000012
 20
964441.2343000025
 10
604994.8519000011
 20
964445.0837999993
 10
604992.1574000009
 20
964449.1583000013
 10
604990.3370000003
 20
964452.9418000002
 10
604988.7713000011
 20
964458.1443000008
 10
604986.9848936607
 20
964462.5783273287
  0
LWPOLYLINE
  5
36
330
2
100
AcDbEntity
  8
VUOVIA
100
AcDbPolyline
 90
        8
 70
     1
 43
0.0
 10
605038.3097
 20
964417.4635000043
 10
605036.2088000001
 20
964411.8126999979
 10
605032.9289000007
 20
964414.1215000004
 10
605030.8686000016
 20
964415.2428000012
 10
605030.6259000013
 20
964415.3749000039
 10
605028.6983000003
 20
964417.4445000011
 10
605031.4258000013
 20
964417.258899998
 10
605034.9945999998
 20
964417.0161000026
  0
LWPOLYLINE
  5
C4
330
2
100
AcDbEntity
  8
VUOVIA
100
AcDbPolyline
 90
       26
 70
     1
 43
0.0
 10
603445.1815999998
 20
963097.616200002
 10
603444.025200001
 20
963097.5636000037
 10
603442.7571000001
 20
963097.7266000007
 10
603441.3175999997
 20
963098.3131000029
 10
603440.2007000009
 20
963099.2204999998
 10
603439.3112000013
 20
963100.4066000024
 10
603438.7155999998
 20
963101.7378000002
 10
603438.5389
 20
963103.4700000007
 10
603438.9316999996
 20
963105.3219000008
 10
603439.4432000016
 20
963106.3120000046
 10
603439.6689999997
 20
963106.5830000025
 10
603440.104700001
 20
963107.105800003
 10
603441.4987999992
 20
963108.1560999994
 10
603442.9342999999
 20
963108.7232000009
 10
603444.4706000016
 20
963108.8629000002
 10
603446.0024000006
 20
963108.5491000023
 10
603447.1664000005
 20
963108.0453000013
 10
603448.1980999997
 20
963107.2027000023
 10
603449.1846000012
 20
963105.8812000027
 10
603449.6464
 20
963104.7010000031
 10
603449.8492
 20
963103.2444999982
 10
603449.7118999995
 20
963101.8539000024
 10
603449.3681000014
 20
963101.0634000004
 10
603448.9886000017
 20
963100.1905000024
 10
603447.8212000011
 20
963098.8406000007
 10
603446.6119
 20
963098.0631000028
  0
TEXT
  5
53E1
330
2
100
AcDbEntity
  8
VIAB04_TESTI
100
AcDbText
 10
605403.3043343842
 20
962381.2785594415
 30
0.0
 40
1.016002032004063
  1
24 A
  7
Arial
 72
     1
 11
605404.7652704576
 21
962380.9777784853
 31
0.0
100
AcDbText
 73
     1
  0
TEXT
  5
53E2
330
2
100
AcDbEntity
  8
VIAB04_TESTI
100
AcDbText
 10
605167.4293343854
 20
962423.9035594415
 30
0.0
 40
1.016002032004063
  1
49 A
  7
Arial
 72
     1
 11
605168.8902704587
 21
962423.6027784853
 31
0.0
100
AcDbText
 73
     1
  0
LWPOLYLINE
  5
AE8E
330
2
100
AcDbEntity
  8
VIAB01
100
AcDbPolyline
 90
      117
 70
     1
 43
0.0
 10
605234.4713000003
 20
964005.9986000006
 10
605228.7942000003
 20
964007.4591000006
 10
605253.3174999999
 20
964096.7792000008
 10
605253.3578000003
 20
964096.9129000009
 10
605253.7092000005
 20
964097.9879000001
 10
605253.7198999999
 20
964098.0200999994
 10
605253.7890999997
 20
964098.2039
 10
605253.8044999996
 20
964098.2404999995
 10
605254.2511
 20
964099.2795000002
 10
605254.3167000003
 20
964099.4217000008
 10
605254.3685999997
 20
964099.5220999997
 10
605254.9067000001
 20
964100.5168999994
 10
605254.9473000001
 20
964100.5896000006
 10
605255.0456999997
 20
964100.7484000009
 10
605255.6710000001
 20
964101.6907000002
 10
605255.6763000004
 20
964101.6985999998
 10
605255.7906
 20
964101.8582000008
 10
605255.8300000001
 20
964101.9083999992
 10
605256.5373999998
 20
964102.7907999998
 10
605256.6226000004
 20
964102.8923000005
 10
605256.7156999996
 20
964102.9936999997
 10
605257.4995999997
 20
964103.8089000005
 10
605257.5406999999
 20
964103.8508000001
 10
605257.6840000003
 20
964103.9849999994
 10
605257.6948999996
 20
964103.9945000002
 10
605258.5488
 20
964104.7360999994
 10
605258.6896000001
 20
964104.8511999995
 10
605258.7604000001
 20
964104.9037999996
 10
605259.6775000003
 20
964105.5656000004
 10
605259.7663000003
 20
964105.6272999998
 10
605259.9033000004
 20
964105.7136000004
 10
605260.8761999998
 20
964106.2903000005
 10
605260.9058999997
 20
964106.3077000007
 10
605261.0789999999
 20
964106.4002
 10
605261.1140000001
 20
964106.4171999992
 10
605262.1347000003
 20
964106.9042000008
 10
605262.2785
 20
964106.9682000001
 10
605262.3833999997
 20
964107.0094000008
 10
605263.4437999995
 20
964107.4026999996
 10
605263.5226999997
 20
964107.4307000003
 10
605263.7007
 20
964107.4849999995
 10
605264.7921000001
 20
964107.7814000007
 10
605264.8019000003
 20
964107.7840999999
 10
605264.9930999996
 20
964107.8287000006
 10
605265.0553000002
 20
964107.8402999994
 10
605266.1688999999
 20
964108.0374999997
 10
605266.3004000001
 20
964108.0578000007
 10
605266.4365999997
 20
964108.0725999998
 10
605267.5635000002
 20
964108.1688999999
 10
605267.6227000002
 20
964108.1733999998
 10
605267.8189000003
 20
964108.1798000001
 10
605267.8329999997
 20
964108.1798000001
 10
605268.9638999999
 20
964108.1744999999
 10
605269.1459999998
 20
964108.1680999995
 10
605269.2334000003
 20
964108.1611000002
 10
605270.3592999996
 20
964108.0541999992
 10
605270.4672999997
 20
964108.0418999997
 10
605270.6264000004
 20
964108.0165999998
 10
605271.7381999996
 20
964107.8090000004
 10
605271.7728000004
 20
964107.8024000005
 10
605271.9639999997
 20
964107.7577999999
 10
605272.0011
 20
964107.7476000004
 10
605273.0895999996
 20
964107.4408999998
 10
605273.2402999997
 20
964107.3940999993
 10
605273.3454999998
 20
964107.3562000002
 10
605274.4022000004
 20
964106.9529999999
 10
605274.4808
 20
964106.9217000008
 10
605274.6497999998
 20
964106.8454999999
 10
605275.6659000004
 20
964106.3489999995
 10
605275.6756999996
 20
964106.3442000003
 10
605275.7857999997
 20
964106.2871000004
 10
605296.5012999997
 20
964094.9835
 10
605298.1973000001
 20
964094.1017000006
 10
605299.8998999996
 20
964093.3014000003
 10
605301.6333999997
 20
964092.5700000003
 10
605303.3947999999
 20
964091.9087000007
 10
605305.1812000004
 20
964091.3186000009
 10
605307.0477
 20
964090.7839000002
 10
605306.2215999998
 20
964087.8999000006
 10
605305.4451000001
 20
964085.0021000002
 10
605305.3954999996
 20
964085.0159000009
 10
605303.4711999996
 20
964085.5670999997
 10
605303.3563000001
 20
964085.602499999
 10
605301.4556
 20
964086.2303999998
 10
605301.4323000005
 20
964086.2381999996
 10
605301.3421000001
 20
964086.2704000008
 10
605299.4681000002
 20
964086.9739999995
 10
605299.3744999999
 20
964087.0110000001
 10
605299.3564999997
 20
964087.0185000004
 10
605297.5121999998
 20
964087.796599999
 10
605297.4022000004
 20
964087.8456999995
 10
605295.5905999998
 20
964088.6972000004
 10
605295.5398000004
 20
964088.7215999999
 10
605295.4828000004
 20
964088.7504999993
 10
605293.7067999998
 20
964089.6739000009
 10
605293.6536999997
 20
964089.7020999995
 10
605272.9710999997
 20
964100.9878000003
 10
605272.1370000001
 20
964101.3954000008
 10
605271.3324999995
 20
964101.702299999
 10
605270.5039999997
 20
964101.9357999994
 10
605269.6577000004
 20
964102.0938000009
 10
605268.8006999996
 20
964102.1752000005
 10
605267.9397999998
 20
964102.1791999992
 10
605267.0821000003
 20
964102.1059000008
 10
605266.2344000005
 20
964101.9558000007
 10
605265.4035999998
 20
964101.7302000001
 10
605264.5964999999
 20
964101.4308000002
 10
605263.8196000001
 20
964101.0601000004
 10
605263.0789999999
 20
964100.6210999993
 10
605262.381
 20
964100.1174999999
 10
605261.7309999997
 20
964099.5528999996
 10
605261.1342000002
 20
964098.9322999995
 10
605260.5958000003
 20
964098.2607000005
 10
605260.1198000004
 20
964097.5434000008
 10
605259.7101999996
 20
964096.7862000001
 10
605259.3701999998
 20
964095.9952000008
 10
605259.0824999995
 20
964095.1151000002
  0
LWPOLYLINE
  5
B1B9
330
2
100
AcDbEntity
  8
FABBRI
100
AcDbPolyline
 90
       12
 70
     0
 43
0.0
 10
605432.0055819957
 20
963146.2840280269
 10
605430.7353971335
 20
963140.603414833
 10
605425.809581031
 20
963141.9281802715
 10
605423.9687499774
 20
963136.4999999805
 10
605341.1515153713
 20
963156.8659114115
 10
605348.750000009
 20
963185.6249999753
 10
605363.8437500146
 20
963181.7656249964
 10
605370.2031249767
 20
963205.9375000064
 10
605402.7812500186
 20
963197.562499975
 10
605406.3682850699
 20
963210.9199146306
 10
605430.7495699418
 20
963203.524590796
 10
605431.0016530944
 20
963203.4812683187
  0
POINT
  5
3C0A
330
2
100
AcDbEntity
  8
VIAB04
100
AcDbPoint
 10
602685.9717
 20
964122.329500001
 30
0.0
  0
POINT
  5
3CA
330
2
100
AcDbEntity
  8
VESPUN
100
AcDbPoint
 10
602499.40625
 20
962249.5781250002
 30
0.0
  0
POINT
  5
3CB
330
2
100
AcDbEntity
  8
VESPUN
100
AcDbPoint
 10
602378.4531250001
 20
962051.515625
 30
0.0
  0
POINT
  5
3CA
330
2
100
AcDbEntity
  8
VESPUN
100
AcDbPoint
 10
602499.40625
 20
962249.5781250002
 30
0.0
  0
ENDSEC
  0
EOF
