  0
SECTION
  2
ENTITIES
  0
POLYLINE
  8
0708
 66
     1
 70
   136
  0
VERTEX
  8
0708
 70
    32
 10
 1640917.36
 20
 4862170.21
 30
   72.73
  0
VERTEX
  8
0708
 70
    32
 10
 1640911.27
 20
 4862198.25
 30
   72.70
  0
SEQEND
  8
0708
  0
POLYLINE
  8
0906
 66
     1
 70
   136
  0
VERTEX
  8
0906
 70
    32
 10
 1647065.00
 20
 4867860.00
 30
  556.52
  0
VERTEX
  8
0906
 70
    32
 10
 1647188.00
 20
 4862307.00
 30
  591.63
  0
VERTEX
  8
0906
 70
    32
 10
 1640495.00
 20
 4862161.00
 30
  633.96
  0
VERTEX
  8
0906
 70
    32
 10
 1640377.00
 20
 4867715.00
 30
  669.08
  0
VERTEX
  8
0906
 70
    32
 10
 1647065.00
 20
 4867860.00
 30
  556.52
  0
SEQEND
  8
0906
  0
POLYLINE
  8
0906
 66
     1
 70
   136
  0
VERTEX
  8
0201
 70
    32
 10
 1646450.28
 20
 4862772.46
 30
   54.29
  0
VERTEX
  8
0201
 70
    32
 10
 1646457.94
 20
 4862771.33
 30
   54.11
  0
VERTEX
  8
0201
 70
    32
 10
 1646455.68
 20
 4862761.50
 30
   54.49
  0
SEQEND
  8
0201
  0
POLYLINE
  8
0714
 66
     1
 70
   136
  0
VERTEX
  8
0714
 70
    32
 10
 1641969.01
 20
 4865226.08
 30
  518.87
  0
VERTEX
  8
0714
 70
    32
 10
 1641972.82
 20
 4865242.18
 30
  519.69
  0
VERTEX
  8
0714
 70
    32
 10
 1641975.04
 20
 4865250.21
 30
  520.89
  0
VERTEX
  8
0714
 70
    32
 10
 1641976.45
 20
 4865256.96
 30
  520.73
  0
VERTEX
  8
0714
 70
    32
 10
 1641981.46
 20
 4865273.74
 30
  518.06
  0
VERTEX
  8
0714
 70
    32
 10
 1641983.69
 20
 4865275.16
 30
  517.08
  0
VERTEX
  8
0714
 70
    32
 10
 1641987.97
 20
 4865277.87
 30
  515.20
  0
VERTEX
  8
0714
 70
    32
 10
 1641996.91
 20
 4865277.48
 30
  512.35
  0
VERTEX
  8
0714
 70
    32
 10
 1642004.36
 20
 4865276.13
 30
  509.62
  0
VERTEX
  8
0714
 70
    32
 10
 1642006.15
 20
 4865269.78
 30
  505.74
  0
VERTEX
  8
0714
 70
    32
 10
 1642004.58
 20
 4865257.76
 30
  502.83
  0
VERTEX
  8
0714
 70
    32
 10
 1642000.05
 20
 4865250.78
 30
  503.03
  0
VERTEX
  8
0714
 70
    32
 10
 1641996.31
 20
 4865243.13
 30
  503.32
  0
VERTEX
  8
0714
 70
    32
 10
 1641994.92
 20
 4865233.87
 30
  503.97
  0
VERTEX
  8
0714
 70
    32
 10
 1641994.58
 20
 4865229.88
 30
  504.11
  0
VERTEX
  8
0714
 70
    32
 10
 1641995.36
 20
 4865221.81
 30
  504.33
  0
VERTEX
  8
0714
 70
    32
 10
 1641997.57
 20
 4865207.30
 30
  505.28
  0
VERTEX
  8
0714
 70
    32
 10
 1642001.17
 20
 4865185.76
 30
  506.86
  0
VERTEX
  8
0714
 70
    32
 10
 1642005.45
 20
 4865159.45
 30
  506.90
  0
VERTEX
  8
0714
 70
    32
 10
 1642005.70
 20
 4865157.77
 30
  506.77
  0
VERTEX
  8
0714
 70
    32
 10
 1642000.11
 20
 4865158.99
 30
  510.70
  0
VERTEX
  8
0714
 70
    32
 10
 1641996.97
 20
 4865160.79
 30
  512.04
  0
VERTEX
  8
0714
 70
    32
 10
 1641993.70
 20
 4865165.58
 30
  513.18
  0
VERTEX
  8
0714
 70
    32
 10
 1641992.25
 20
 4865169.70
 30
  513.39
  0
VERTEX
  8
0714
 70
    32
 10
 1641988.16
 20
 4865187.15
 30
  513.18
  0
VERTEX
  8
0714
 70
    32
 10
 1641984.13
 20
 4865194.87
 30
  514.36
  0
VERTEX
  8
0714
 70
    32
 10
 1641975.01
 20
 4865209.96
 30
  517.48
  0
VERTEX
  8
0714
 70
    32
 10
 1641969.01
 20
 4865226.08
 30
  518.87
  0
SEQEND
  8
0714
  0
POINT
  8
0907
 10
 1645244.54
 20
 4866102.58
 30
  567.93
  0
POINT
  8
0231
 10
 1647000.63
 20
 4867829.22
 30
  272.16
  0
POINT
  8
0231
 10
 1646343.31
 20
 4867805.90
 30
  397.27
  0
POINT
  8
0231
 10
 1642506.09
 20
 4866841.75
 30
  381.54
  0
POINT
  8
0231
 10
 1642112.33
 20
 4864688.20
 30
  433.96
  0
POINT
  8
0231
 10
 1641734.62
 20
 4865794.25
 30
  603.60
  0
POINT
  8
0231
 10
 1640659.45
 20
 4862849.61
 30
   97.58
  0
POINT
  8
0231
 10
 1646492.89
 20
 4862739.77
 30
   52.88
  0
TEXT
  8
1014
 10
 1642628.16
 20
 4864868.39
 30
  299.30
 40
   15.00
 50
     .00
 51
     .00
  1
299.3
  0
TEXT
  8
1016
 10
 1647132.59
 20
 4862749.38
 30
   34.00
 40
   15.00
 50
   26.00
 51
     .00
  1
34
  0
ENDSEC
  0
EOF
