  0
SECTION
  2
HEADER
  9
$EXTMIN
 10
663365.734                      
 20
5165233.713                     
 30
-6.270                          
  9
$EXTMAX
 10
669267.494                      
 20
5173336.006                     
 30
828.070                         
  9
$LUPREC
 70
     7
  0
ENDSEC
  0
SECTION
  2
TABLES
  0
TABLE
  2
LAYER
 70
  1
  0
LAYER
  2
SHP_POLY
 70
64
 62
7
  6
CONTINUOUS
  0
ENDTAB
  0
ENDSEC
  0
SECTION
  2
BLOCKS
  0
BLOCK
  8
SHP_POLY
  2
BLK000001
 70
    64
 10
666648.328
 20
5168231.314
 30
284.570
  0
POLYLINE
  8
SHP_POLY
 66
     1
 70
     9
  0
VERTEX
  8
SHP_POLY
 10
666648.328
 20
5168231.314
 30
284.570
 70
    32
  0
VERTEX
  8
SHP_POLY
 10
666652.308
 20
5168235.614
 30
282.610
 70
    32
  0
VERTEX
  8
SHP_POLY
 10
666651.978
 20
5168241.614
 30
282.570
 70
    32
  0
VERTEX
  8
SHP_POLY
 10
666651.408
 20
5168251.684
 30
279.890
 70
    32
  0
VERTEX
  8
SHP_POLY
 10
666651.268
 20
5168254.114
 30
282.570
 70
    32
  0
VERTEX
  8
SHP_POLY
 10
666650.858
 20
5168261.574
 30
284.330
 70
    32
  0
VERTEX
  8
SHP_POLY
 10
666651.588
 20
5168262.864
 30
284.310
 70
    32
  0
VERTEX
  8
SHP_POLY
 10
666657.392
 20
5168270.448
 30
284.001
 70
    32
  0
VERTEX
  8
SHP_POLY
 10
666660.794
 20
5168269.261
 30
283.990
 70
    32
  0
VERTEX
  8
SHP_POLY
 10
666655.568
 20
5168262.864
 30
284.350
 70
    32
  0
VERTEX
  8
SHP_POLY
 10
666654.568
 20
5168260.824
 30
284.430
 70
    32
  0
VERTEX
  8
SHP_POLY
 10
666654.318
 20
5168259.644
 30
284.430
 70
    32
  0
VERTEX
  8
SHP_POLY
 10
666654.308
 20
5168257.774
 30
284.450
 70
    32
  0
VERTEX
  8
SHP_POLY
 10
666654.578
 20
5168250.864
 30
284.450
 70
    32
  0
VERTEX
  8
SHP_POLY
 10
666655.858
 20
5168233.744
 30
284.810
 70
    32
  0
VERTEX
  8
SHP_POLY
 10
666653.298
 20
5168229.974
 30
284.790
 70
    32
  0
VERTEX
  8
SHP_POLY
 10
666653.198
 20
5168226.764
 30
284.710
 70
    32
  0
VERTEX
  8
SHP_POLY
 10
666653.708
 20
5168220.585
 30
284.590
 70
    32
  0
VERTEX
  8
SHP_POLY
 10
666661.418
 20
5168215.005
 30
285.050
 70
    32
  0
VERTEX
  8
SHP_POLY
 10
666668.867
 20
5168215.474
 30
285.210
 70
    32
  0
VERTEX
  8
SHP_POLY
 10
666671.327
 20
5168218.824
 30
285.170
 70
    32
  0
VERTEX
  8
SHP_POLY
 10
666672.257
 20
5168218.894
 30
284.970
 70
    32
  0
VERTEX
  8
SHP_POLY
 10
666674.767
 20
5168219.074
 30
284.970
 70
    32
  0
VERTEX
  8
SHP_POLY
 10
666673.937
 20
5168218.024
 30
284.970
 70
    32
  0
VERTEX
  8
SHP_POLY
 10
666674.917
 20
5168217.094
 30
284.970
 70
    32
  0
VERTEX
  8
SHP_POLY
 10
666675.207
 20
5168213.044
 30
284.980
 70
    32
  0
VERTEX
  8
SHP_POLY
 10
666674.367
 20
5168211.995
 30
284.980
 70
    32
  0
VERTEX
  8
SHP_POLY
 10
666675.347
 20
5168211.075
 30
284.980
 70
    32
  0
VERTEX
  8
SHP_POLY
 10
666675.627
 20
5168207.045
 30
284.980
 70
    32
  0
VERTEX
  8
SHP_POLY
 10
666674.787
 20
5168205.995
 30
284.980
 70
    32
  0
VERTEX
  8
SHP_POLY
 10
666675.767
 20
5168205.065
 30
284.990
 70
    32
  0
VERTEX
  8
SHP_POLY
 10
666676.067
 20
5168200.865
 30
284.990
 70
    32
  0
VERTEX
  8
SHP_POLY
 10
666679.857
 20
5168196.155
 30
284.990
 70
    32
  0
VERTEX
  8
SHP_POLY
 10
666679.407
 20
5168201.105
 30
284.950
 70
    32
  0
VERTEX
  8
SHP_POLY
 10
666683.607
 20
5168201.405
 30
284.810
 70
    32
  0
VERTEX
  8
SHP_POLY
 10
666684.237
 20
5168196.145
 30
284.830
 70
    32
  0
VERTEX
  8
SHP_POLY
 10
666669.687
 20
5168178.795
 30
285.030
 70
    32
  0
VERTEX
  8
SHP_POLY
 10
666670.337
 20
5168169.915
 30
285.110
 70
    32
  0
VERTEX
  8
SHP_POLY
 10
666692.737
 20
5168171.275
 30
284.210
 70
    32
  0
VERTEX
  8
SHP_POLY
 10
666692.937
 20
5168168.645
 30
290.710
 70
    32
  0
VERTEX
  8
SHP_POLY
 10
666686.967
 20
5168168.005
 30
284.090
 70
    32
  0
VERTEX
  8
SHP_POLY
 10
666670.617
 20
5168166.875
 30
285.170
 70
    32
  0
VERTEX
  8
SHP_POLY
 10
666667.677
 20
5168166.675
 30
285.170
 70
    32
  0
VERTEX
  8
SHP_POLY
 10
666664.867
 20
5168164.475
 30
285.170
 70
    32
  0
VERTEX
  8
SHP_POLY
 10
666664.207
 20
5168173.905
 30
283.640
 70
    32
  0
VERTEX
  8
SHP_POLY
 10
666664.047
 20
5168176.155
 30
283.640
 70
    32
  0
VERTEX
  8
SHP_POLY
 10
666662.977
 20
5168177.415
 30
284.980
 70
    32
  0
VERTEX
  8
SHP_POLY
 10
666651.477
 20
5168187.515
 30
284.870
 70
    32
  0
VERTEX
  8
SHP_POLY
 10
666650.438
 20
5168205.285
 30
284.950
 70
    32
  0
VERTEX
  8
SHP_POLY
 10
666650.798
 20
5168206.205
 30
284.930
 70
    32
  0
VERTEX
  8
SHP_POLY
 10
666650.218
 20
5168220.295
 30
284.550
 70
    32
  0
VERTEX
  8
SHP_POLY
 10
666649.868
 20
5168229.904
 30
284.510
 70
    32
  0
VERTEX
  8
SHP_POLY
 10
666648.328
 20
5168231.314
 30
284.570
 70
    32
  0
SEQEND
  8
SHP_POLY
  0
POLYLINE
  8
SHP_POLY
 66
     1
 70
     9
  0
VERTEX
  8
SHP_POLY
 10
666654.238
 20
5168211.325
 30
284.930
 70
    32
  0
VERTEX
  8
SHP_POLY
 10
666653.328
 20
5168209.745
 30
284.930
 70
    32
  0
VERTEX
  8
SHP_POLY
 10
666654.717
 20
5168188.655
 30
284.890
 70
    32
  0
VERTEX
  8
SHP_POLY
 10
666664.027
 20
5168180.565
 30
285.030
 70
    32
  0
VERTEX
  8
SHP_POLY
 10
666666.977
 20
5168180.685
 30
285.030
 70
    32
  0
VERTEX
  8
SHP_POLY
 10
666670.247
 20
5168185.185
 30
284.890
 70
    32
  0
VERTEX
  8
SHP_POLY
 10
666663.647
 20
5168191.765
 30
284.910
 70
    32
  0
VERTEX
  8
SHP_POLY
 10
666667.377
 20
5168196.975
 30
284.910
 70
    32
  0
VERTEX
  8
SHP_POLY
 10
666670.647
 20
5168200.655
 30
284.950
 70
    32
  0
VERTEX
  8
SHP_POLY
 10
666671.097
 20
5168202.175
 30
284.970
 70
    32
  0
VERTEX
  8
SHP_POLY
 10
666670.417
 20
5168208.475
 30
284.970
 70
    32
  0
VERTEX
  8
SHP_POLY
 10
666665.057
 20
5168212.055
 30
284.930
 70
    32
  0
VERTEX
  8
SHP_POLY
 10
666654.238
 20
5168211.325
 30
284.930
 70
    32
  0
SEQEND
  8
SHP_POLY
  0
POLYLINE
  8
SHP_POLY
 66
     1
 70
     9
  0
VERTEX
  8
SHP_POLY
 10
666673.417
 20
5168199.475
 30
285.010
 70
    32
  0
VERTEX
  8
SHP_POLY
 10
666671.517
 20
5168196.865
 30
285.030
 70
    32
  0
VERTEX
  8
SHP_POLY
 10
666672.017
 20
5168189.235
 30
285.050
 70
    32
  0
VERTEX
  8
SHP_POLY
 10
666674.107
 20
5168189.265
 30
285.070
 70
    32
  0
VERTEX
  8
SHP_POLY
 10
666677.817
 20
5168193.665
 30
285.030
 70
    32
  0
VERTEX
  8
SHP_POLY
 10
666673.417
 20
5168199.475
 30
285.010
 70
    32
  0
SEQEND
  8
SHP_POLY
  0
ENDBLK
  0
BLOCK
  8
SHP_POLY
  2
BLK000002
 70
    64
 10
666583.381
 20
5168444.861
 30
286.970
  0
POLYLINE
  8
SHP_POLY
 66
     1
 70
     9
  0
VERTEX
  8
SHP_POLY
 10
666583.381
 20
5168444.861
 30
286.970
 70
    32
  0
VERTEX
  8
SHP_POLY
 10
666589.780
 20
5168417.361
 30
288.090
 70
    32
  0
VERTEX
  8
SHP_POLY
 10
666586.980
 20
5168410.462
 30
287.870
 70
    32
  0
VERTEX
  8
SHP_POLY
 10
666586.580
 20
5168406.662
 30
287.770
 70
    32
  0
VERTEX
  8
SHP_POLY
 10
666586.880
 20
5168402.662
 30
287.750
 70
    32
  0
VERTEX
  8
SHP_POLY
 10
666587.580
 20
5168398.662
 30
287.810
 70
    32
  0
VERTEX
  8
SHP_POLY
 10
666589.680
 20
5168394.462
 30
287.810
 70
    32
  0
VERTEX
  8
SHP_POLY
 10
666593.180
 20
5168390.462
 30
288.010
 70
    32
  0
VERTEX
  8
SHP_POLY
 10
666593.580
 20
5168386.962
 30
286.770
 70
    32
  0
VERTEX
  8
SHP_POLY
 10
666592.980
 20
5168389.462
 30
287.090
 70
    32
  0
VERTEX
  8
SHP_POLY
 10
666590.280
 20
5168392.562
 30
286.890
 70
    32
  0
VERTEX
  8
SHP_POLY
 10
666588.680
 20
5168395.162
 30
286.830
 70
    32
  0
VERTEX
  8
SHP_POLY
 10
666587.080
 20
5168398.362
 30
286.850
 70
    32
  0
VERTEX
  8
SHP_POLY
 10
666586.180
 20
5168402.462
 30
286.590
 70
    32
  0
VERTEX
  8
SHP_POLY
 10
666585.980
 20
5168407.062
 30
286.570
 70
    32
  0
VERTEX
  8
SHP_POLY
 10
666586.370
 20
5168410.662
 30
286.590
 70
    32
  0
VERTEX
  8
SHP_POLY
 10
666587.880
 20
5168413.962
 30
286.650
 70
    32
  0
VERTEX
  8
SHP_POLY
 10
666589.180
 20
5168417.361
 30
286.650
 70
    32
  0
VERTEX
  8
SHP_POLY
 10
666582.781
 20
5168444.561
 30
286.790
 70
    32
  0
VERTEX
  8
SHP_POLY
 10
666583.381
 20
5168444.861
 30
286.970
 70
    32
  0
SEQEND
  8
SHP_POLY
  0
ENDBLK
  0
BLOCK
  8
SHP_POLY
  2
BLK000003
 70
    64
 10
666616.449
 20
5168334.043
 30
286.070
  0
POLYLINE
  8
SHP_POLY
 66
     1
 70
     9
  0
VERTEX
  8
SHP_POLY
 10
666616.449
 20
5168334.043
 30
286.070
 70
    32
  0
VERTEX
  8
SHP_POLY
 10
666621.049
 20
5168327.043
 30
285.890
 70
    32
  0
VERTEX
  8
SHP_POLY
 10
666640.949
 20
5168310.843
 30
285.570
 70
    32
  0
VERTEX
  8
SHP_POLY
 10
666642.349
 20
5168309.343
 30
285.130
 70
    32
  0
VERTEX
  8
SHP_POLY
 10
666620.849
 20
5168326.643
 30
282.830
 70
    32
  0
VERTEX
  8
SHP_POLY
 10
666615.879
 20
5168333.653
 30
282.250
 70
    32
  0
VERTEX
  8
SHP_POLY
 10
666616.449
 20
5168334.043
 30
286.070
 70
    32
  0
SEQEND
  8
SHP_POLY
  0
ENDBLK
  0
ENDSEC
  0
SECTION
  2
ENTITIES
  0
INSERT
  8
SHP_POLY
  2
BLK000001
 10
666648.328
 20
5168231.314
 30
284.570
  0
INSERT
  8
SHP_POLY
  2
BLK000002
 10
666583.381
 20
5168444.861
 30
286.970
  0
INSERT
  8
SHP_POLY
  2
BLK000003
 10
666616.449
 20
5168334.043
 30
286.070
  0
EOF
