  0
SECTION
  2
HEADER
  9
$EXTMIN
 10
663412.921                      
 20
5165262.643                     
 30
0.000                           
  9
$EXTMAX
 10
668486.317                      
 20
5172964.162                     
 30
589.850                         
  9
$LUPREC
 70
     7
  0
ENDSEC
  0
SECTION
  2
TABLES
  0
TABLE
  2
LAYER
 70
  1
  0
LAYER
  2
SHP_POINT
 70
64
 62
7
  6
CONTINUOUS
  0
ENDTAB
  0
ENDSEC
  0
SECTION
  2
ENTITIES
  0
POINT
  8
SHP_POINT
 10
667710.008
 20
5169402.895
 30
589.850
  0
POINT
  8
SHP_POINT
 10
667687.978
 20
5169352.046
 30
583.140
  0
POINT
  8
SHP_POINT
 10
666907.922
 20
5168060.765
 30
279.470
  0
POINT
  8
SHP_POINT
 10
666953.070
 20
5167886.338
 30
277.750
  0
POINT
  8
SHP_POINT
 10
666963.279
 20
5167864.568
 30
277.550
  0
POINT
  8
SHP_POINT
 10
666902.562
 20
5168129.154
 30
280.360
  0
POINT
  8
SHP_POINT
 10
666885.472
 20
5168091.785
 30
280.020
  0
POINT
  8
SHP_POINT
 10
666814.808
 20
5167436.647
 30
279.590
  0
POINT
  8
SHP_POINT
 10
666925.492
 20
5168086.965
 30
280.320
  0
POINT
  8
SHP_POINT
 10
666849.489
 20
5167587.904
 30
276.430
  0
POINT
  8
SHP_POINT
 10
666924.442
 20
5168124.394
 30
280.360
  0
POINT
  8
SHP_POINT
 10
666921.113
 20
5168191.263
 30
281.700
  0
POINT
  8
SHP_POINT
 10
666851.349
 20
5167561.805
 30
276.970
  0
POINT
  8
SHP_POINT
 10
666814.404
 20
5168103.605
 30
279.260
  0
POINT
  8
SHP_POINT
 10
666825.179
 20
5167535.736
 30
277.590
  0
POINT
  8
SHP_POINT
 10
666808.189
 20
5167544.035
 30
277.050
  0
POINT
  8
SHP_POINT
 10
666894.342
 20
5168012.136
 30
278.340
  0
POINT
  8
SHP_POINT
 10
666914.519
 20
5167734.521
 30
275.820
  0
POINT
  8
SHP_POINT
 10
666813.393
 20
5167993.837
 30
277.920
  0
POINT
  8
SHP_POINT
 10
666805.314
 20
5168083.186
 30
279.380
  0
POINT
  8
SHP_POINT
 10
666809.044
 20
5168060.076
 30
278.940
  0
POINT
  8
SHP_POINT
 10
666812.124
 20
5168140.855
 30
279.740
  0
POINT
  8
SHP_POINT
 10
666874.072
 20
5168049.836
 30
278.640
  0
POINT
  8
SHP_POINT
 10
666842.629
 20
5167527.566
 30
277.410
  0
POINT
  8
SHP_POINT
 10
666847.179
 20
5167613.534
 30
275.890
  0
POINT
  8
SHP_POINT
 10
666880.017
 20
5167401.757
 30
281.130
  0
POINT
  8
SHP_POINT
 10
666858.643
 20
5168084.105
 30
279.740
  0
POINT
  8
SHP_POINT
 10
666893.941
 20
5167918.688
 30
277.100
  0
POINT
  8
SHP_POINT
 10
666904.593
 20
5168142.344
 30
281.220
  0
POINT
  8
SHP_POINT
 10
666856.861
 20
5167902.649
 30
277.200
  0
POINT
  8
SHP_POINT
 10
666870.811
 20
5167908.538
 30
277.500
  0
POINT
  8
SHP_POINT
 10
666933.110
 20
5167929.448
 30
278.130
  0
POINT
  8
SHP_POINT
 10
666812.124
 20
5168140.855
 30
279.760
  0
POINT
  8
SHP_POINT
 10
666852.131
 20
5167856.729
 30
277.500
  0
POINT
  8
SHP_POINT
 10
666942.910
 20
5167908.118
 30
278.130
  0
POINT
  8
SHP_POINT
 10
666835.703
 20
5168022.817
 30
278.280
  0
POINT
  8
SHP_POINT
 10
666912.201
 20
5167972.497
 30
278.360
  0
POINT
  8
SHP_POINT
 10
666822.903
 20
5168046.076
 30
278.380
  0
POINT
  8
SHP_POINT
 10
666860.253
 20
5168048.926
 30
278.620
  0
POINT
  8
SHP_POINT
 10
666935.943
 20
5168246.662
 30
283.110
  0
POINT
  8
SHP_POINT
 10
666861.251
 20
5167866.869
 30
277.700
  0
POINT
  8
SHP_POINT
 10
666855.252
 20
5167924.678
 30
277.460
  0
POINT
  8
SHP_POINT
 10
666876.451
 20
5167921.538
 30
277.480
  0
POINT
  8
SHP_POINT
 10
666885.001
 20
5167909.578
 30
277.420
  0
POINT
  8
SHP_POINT
 10
666858.211
 20
5167883.419
 30
277.200
  0
POINT
  8
SHP_POINT
 10
666877.181
 20
5167884.029
 30
277.200
  0
POINT
  8
SHP_POINT
 10
666811.683
 20
5168019.087
 30
278.180
  0
POINT
  8
SHP_POINT
 10
666846.222
 20
5167965.148
 30
277.260
  0
POINT
  8
SHP_POINT
 10
666871.322
 20
5167943.788
 30
277.520
  0
POINT
  8
SHP_POINT
 10
666927.183
 20
5168217.002
 30
282.130
  0
POINT
  8
SHP_POINT
 10
666926.129
 20
5167741.961
 30
275.820
  0
POINT
  8
SHP_POINT
 10
666886.331
 20
5167934.758
 30
277.480
  0
POINT
  8
SHP_POINT
 10
666853.662
 20
5167944.548
 30
277.520
  0
POINT
  8
SHP_POINT
 10
666810.403
 20
5168041.406
 30
278.540
  0
POINT
  8
SHP_POINT
 10
666837.753
 20
5168047.226
 30
278.360
  0
POINT
  8
SHP_POINT
 10
666903.801
 20
5167990.657
 30
278.440
  0
POINT
  8
SHP_POINT
 10
667139.889
 20
5168268.150
 30
300.230
  0
POINT
  8
SHP_POINT
 10
666939.139
 20
5167750.291
 30
275.820
  0
POINT
  8
SHP_POINT
 10
666913.683
 20
5168164.903
 30
281.400
  0
POINT
  8
SHP_POINT
 10
666907.902
 20
5168060.755
 30
279.420
  0
POINT
  8
SHP_POINT
 10
666901.601
 20
5167902.258
 30
276.980
  0
POINT
  8
SHP_POINT
 10
666809.683
 20
5167973.798
 30
277.460
  0
POINT
  8
SHP_POINT
 10
666800.183
 20
5167954.628
 30
277.540
  0
POINT
  8
SHP_POINT
 10
666896.812
 20
5168116.994
 30
280.760
  0
POINT
  8
SHP_POINT
 10
666828.383
 20
5168082.266
 30
279.420
  0
POINT
  8
SHP_POINT
 10
666828.122
 20
5167915.299
 30
276.740
  0
POINT
  8
SHP_POINT
 10
666834.001
 20
5167832.980
 30
274.500
  0
POINT
  8
SHP_POINT
 10
666825.112
 20
5167954.688
 30
277.260
  0
POINT
  8
SHP_POINT
 10
666839.321
 20
5167756.111
 30
274.000
  0
POINT
  8
SHP_POINT
 10
666831.222
 20
5167873.979
 30
276.400
  0
POINT
  8
SHP_POINT
 10
666802.625
 20
5168262.623
 30
290.370
  0
POINT
  8
SHP_POINT
 10
666923.279
 20
5167710.892
 30
276.610
  0
POINT
  8
SHP_POINT
 10
666841.240
 20
5167721.412
 30
274.450
  0
POINT
  8
SHP_POINT
 10
666944.458
 20
5167689.562
 30
277.710
  0
POINT
  8
SHP_POINT
 10
666805.545
 20
5168221.933
 30
288.970
  0
POINT
  8
SHP_POINT
 10
666894.869
 20
5167738.331
 30
275.320
  0
POINT
  8
SHP_POINT
 10
666866.360
 20
5167765.051
 30
274.960
  0
POINT
  8
SHP_POINT
 10
666808.425
 20
5168181.414
 30
295.560
  0
POINT
  8
SHP_POINT
 10
666842.680
 20
5167679.713
 30
275.390
  0
POINT
  8
SHP_POINT
 10
666836.761
 20
5167792.981
 30
274.820
  0
POINT
  8
SHP_POINT
 10
667139.422
 20
5168654.643
 30
297.790
  0
POINT
  8
SHP_POINT
 10
667147.662
 20
5168678.422
 30
300.650
  0
POINT
  8
SHP_POINT
 10
667129.572
 20
5168605.914
 30
292.750
  0
POINT
  8
SHP_POINT
 10
667133.592
 20
5168630.033
 30
295.630
  0
POINT
  8
SHP_POINT
 10
667126.571
 20
5168455.166
 30
290.170
  0
POINT
  8
SHP_POINT
 10
667002.952
 20
5168356.009
 30
287.270
  0
POINT
  8
SHP_POINT
 10
666967.223
 20
5168349.430
 30
285.740
  0
POINT
  8
SHP_POINT
 10
667019.202
 20
5168365.799
 30
286.590
  0
POINT
  8
SHP_POINT
 10
667129.182
 20
5168580.404
 30
292.520
  0
POINT
  8
SHP_POINT
 10
667129.322
 20
5168554.815
 30
291.620
  0
POINT
  8
SHP_POINT
 10
667132.652
 20
5168529.685
 30
290.730
  0
POINT
  8
SHP_POINT
 10
666641.059
 20
5168310.503
 30
285.490
  0
POINT
  8
SHP_POINT
 10
666922.384
 20
5168389.319
 30
286.320
  0
POINT
  8
SHP_POINT
 10
666946.924
 20
5168378.649
 30
286.420
  0
POINT
  8
SHP_POINT
 10
666943.693
 20
5168271.881
 30
283.520
  0
POINT
  8
SHP_POINT
 10
666896.975
 20
5168398.969
 30
286.240
  0
POINT
  8
SHP_POINT
 10
667056.111
 20
5168334.499
 30
289.530
  0
POINT
  8
SHP_POINT
 10
666993.673
 20
5168365.259
 30
286.850
  0
POINT
  8
SHP_POINT
 10
667030.402
 20
5168344.869
 30
288.410
  0
POINT
  8
SHP_POINT
 10
666959.363
 20
5168323.460
 30
284.800
  0
POINT
  8
SHP_POINT
 10
667112.640
 20
5168311.689
 30
294.310
  0
POINT
  8
SHP_POINT
 10
666822.256
 20
5168429.449
 30
287.080
  0
POINT
  8
SHP_POINT
 10
666871.975
 20
5168409.249
 30
286.500
  0
POINT
  8
SHP_POINT
 10
666768.718
 20
5168453.599
 30
287.620
  0
POINT
  8
SHP_POINT
 10
666847.116
 20
5168419.369
 30
286.700
  0
POINT
  8
SHP_POINT
 10
666742.388
 20
5168468.039
 30
287.620
  0
POINT
  8
SHP_POINT
 10
667044.382
 20
5168366.169
 30
286.670
  0
POINT
  8
SHP_POINT
 10
667096.071
 20
5168367.278
 30
287.950
  0
POINT
  8
SHP_POINT
 10
666654.678
 20
5168292.083
 30
284.570
  0
POINT
  8
SHP_POINT
 10
666967.803
 20
5168369.919
 30
286.460
  0
POINT
  8
SHP_POINT
 10
667134.110
 20
5168291.939
 30
297.270
  0
POINT
  8
SHP_POINT
 10
667112.041
 20
5168381.448
 30
288.950
  0
POINT
  8
SHP_POINT
 10
667116.071
 20
5168406.187
 30
289.570
  0
POINT
  8
SHP_POINT
 10
667123.401
 20
5168429.967
 30
289.790
  0
POINT
  8
SHP_POINT
 10
666951.543
 20
5168297.811
 30
284.240
  0
POINT
  8
SHP_POINT
 10
667133.431
 20
5168504.696
 30
290.180
  0
POINT
  8
SHP_POINT
 10
667131.951
 20
5168479.406
 30
290.040
  0
POINT
  8
SHP_POINT
 10
667087.081
 20
5168322.529
 30
291.870
  0
POINT
  8
SHP_POINT
 10
666717.909
 20
5168481.089
 30
287.620
  0
POINT
  8
SHP_POINT
 10
667070.851
 20
5168366.469
 30
287.050
  0
POINT
  8
SHP_POINT
 10
666667.588
 20
5168274.743
 30
283.690
  0
POINT
  8
SHP_POINT
 10
666792.687
 20
5168442.329
 30
287.400
  0
POINT
  8
SHP_POINT
 10
666796.656
 20
5168347.361
 30
293.050
  0
POINT
  8
SHP_POINT
 10
666794.247
 20
5168406.680
 30
294.560
  0
POINT
  8
SHP_POINT
 10
666799.916
 20
5168302.952
 30
291.870
  0
POINT
  8
SHP_POINT
 10
666795.166
 20
5168376.341
 30
293.520
  0
POINT
  8
SHP_POINT
 10
667062.872
 20
5169669.875
 30
348.990
  0
POINT
  8
SHP_POINT
 10
667227.370
 20
5169769.262
 30
377.470
  0
POINT
  8
SHP_POINT
 10
667105.197
 20
5169158.624
 30
313.540
  0
POINT
  8
SHP_POINT
 10
667023.749
 20
5169177.534
 30
308.700
  0
POINT
  8
SHP_POINT
 10
667097.098
 20
5169234.343
 30
319.710
  0
POINT
  8
SHP_POINT
 10
667103.877
 20
5169196.163
 30
317.720
  0
POINT
  8
SHP_POINT
 10
667175.021
 20
5169748.573
 30
362.210
  0
POINT
  8
SHP_POINT
 10
666808.520
 20
5170129.959
 30
377.670
  0
POINT
  8
SHP_POINT
 10
667082.839
 20
5169291.802
 30
322.480
  0
POINT
  8
SHP_POINT
 10
667106.443
 20
5169853.661
 30
361.980
  0
POINT
  8
SHP_POINT
 10
667184.764
 20
5168983.056
 30
317.680
  0
POINT
  8
SHP_POINT
 10
666992.477
 20
5170080.978
 30
381.120
  0
POINT
  8
SHP_POINT
 10
667096.772
 20
5169750.983
 30
353.030
  0
POINT
  8
SHP_POINT
 10
666892.616
 20
5169744.285
 30
349.150
  0
POINT
  8
SHP_POINT
 10
666831.349
 20
5170056.690
 30
373.250
  0
POINT
  8
SHP_POINT
 10
667216.190
 20
5169774.902
 30
378.960
  0
POINT
  8
SHP_POINT
 10
666987.247
 20
5170058.469
 30
379.090
  0
POINT
  8
SHP_POINT
 10
666818.448
 20
5169881.053
 30
358.650
  0
POINT
  8
SHP_POINT
 10
667271.399
 20
5169737.762
 30
370.850
  0
POINT
  8
SHP_POINT
 10
666880.121
 20
5169159.076
 30
305.590
  0
POINT
  8
SHP_POINT
 10
666922.695
 20
5169725.535
 30
349.700
  0
POINT
  8
SHP_POINT
 10
666808.839
 20
5169983.471
 30
366.540
  0
POINT
  8
SHP_POINT
 10
667239.131
 20
5169941.649
 30
367.040
  0
POINT
  8
SHP_POINT
 10
667198.751
 20
5169895.650
 30
364.390
  0
POINT
  8
SHP_POINT
 10
666921.295
 20
5169705.026
 30
348.250
  0
POINT
  8
SHP_POINT
 10
666924.536
 20
5169798.714
 30
354.790
  0
POINT
  8
SHP_POINT
 10
667096.172
 20
5169772.953
 30
355.870
  0
POINT
  8
SHP_POINT
 10
667111.413
 20
5169901.370
 30
366.750
  0
POINT
  8
SHP_POINT
 10
666874.666
 20
5169745.045
 30
348.690
  0
POINT
  8
SHP_POINT
 10
667137.236
 20
5169097.435
 30
312.580
  0
POINT
  8
SHP_POINT
 10
667085.768
 20
5169178.284
 30
312.250
  0
POINT
  8
SHP_POINT
 10
666815.910
 20
5170114.879
 30
377.030
  0
POINT
  8
SHP_POINT
 10
666903.431
 20
5169165.385
 30
306.000
  0
POINT
  8
SHP_POINT
 10
666857.452
 20
5169151.216
 30
304.820
  0
POINT
  8
SHP_POINT
 10
667092.888
 20
5169253.822
 30
320.750
  0
POINT
  8
SHP_POINT
 10
666813.069
 20
5169960.612
 30
364.820
  0
POINT
  8
SHP_POINT
 10
666823.830
 20
5170098.639
 30
376.080
  0
POINT
  8
SHP_POINT
 10
667072.803
 20
5169811.122
 30
358.910
  0
POINT
  8
SHP_POINT
 10
666985.192
 20
5169466.399
 30
332.820
  0
POINT
  8
SHP_POINT
 10
666857.797
 20
5169881.573
 30
359.470
  0
POINT
  8
SHP_POINT
 10
666820.909
 20
5170020.421
 30
369.580
  0
POINT
  8
SHP_POINT
 10
667181.865
 20
5169029.446
 30
313.010
  0
POINT
  8
SHP_POINT
 10
666788.601
 20
5170177.748
 30
379.810
  0
POINT
  8
SHP_POINT
 10
667247.049
 20
5169753.722
 30
373.240
  0
POINT
  8
SHP_POINT
 10
667184.572
 20
5168712.231
 30
305.290
  0
POINT
  8
SHP_POINT
 10
667089.008
 20
5169273.062
 30
322.150
  0
POINT
  8
SHP_POINT
 10
667067.948
 20
5169183.054
 30
311.310
  0
POINT
  8
SHP_POINT
 10
666929.820
 20
5169166.655
 30
306.340
  0
POINT
  8
SHP_POINT
 10
667124.116
 20
5169114.025
 30
313.360
  0
POINT
  8
SHP_POINT
 10
667075.502
 20
5169692.625
 30
350.030
  0
POINT
  8
SHP_POINT
 10
666811.701
 20
5170235.077
 30
384.970
  0
POINT
  8
SHP_POINT
 10
667045.170
 20
5169361.591
 30
326.260
  0
POINT
  8
SHP_POINT
 10
667229.080
 20
5169744.062
 30
364.750
  0
POINT
  8
SHP_POINT
 10
667092.792
 20
5169712.254
 30
350.360
  0
POINT
  8
SHP_POINT
 10
667174.575
 20
5169049.505
 30
312.220
  0
POINT
  8
SHP_POINT
 10
667078.862
 20
5169733.464
 30
351.890
  0
POINT
  8
SHP_POINT
 10
667214.750
 20
5169745.462
 30
363.280
  0
POINT
  8
SHP_POINT
 10
666916.794
 20
5169627.667
 30
342.420
  0
POINT
  8
SHP_POINT
 10
667080.731
 20
5169556.717
 30
332.960
  0
POINT
  8
SHP_POINT
 10
667110.697
 20
5169155.904
 30
315.240
  0
POINT
  8
SHP_POINT
 10
666826.319
 20
5170038.860
 30
371.410
  0
POINT
  8
SHP_POINT
 10
666793.031
 20
5170160.018
 30
379.070
  0
POINT
  8
SHP_POINT
 10
666995.587
 20
5170124.707
 30
385.680
  0
POINT
  8
SHP_POINT
 10
667058.953
 20
5169754.314
 30
354.220
  0
POINT
  8
SHP_POINT
 10
667145.902
 20
5169903.360
 30
365.750
  0
POINT
  8
SHP_POINT
 10
667052.973
 20
5169776.883
 30
360.210
  0
POINT
  8
SHP_POINT
 10
666926.236
 20
5169843.263
 30
358.620
  0
POINT
  8
SHP_POINT
 10
667024.871
 20
5169397.380
 30
328.210
  0
POINT
  8
SHP_POINT
 10
667260.409
 20
5169746.722
 30
371.970
  0
POINT
  8
SHP_POINT
 10
667100.878
 20
5169214.833
 30
318.580
  0
POINT
  8
SHP_POINT
 10
666837.088
 20
5169894.223
 30
360.380
  0
POINT
  8
SHP_POINT
 10
667164.682
 20
5168696.892
 30
303.170
  0
POINT
  8
SHP_POINT
 10
667197.174
 20
5168965.197
 30
319.640
  0
POINT
  8
SHP_POINT
 10
667265.511
 20
5169952.698
 30
370.430
  0
POINT
  8
SHP_POINT
 10
667077.582
 20
5169671.485
 30
348.270
  0
POINT
  8
SHP_POINT
 10
667100.222
 20
5169704.504
 30
350.270
  0
POINT
  8
SHP_POINT
 10
667093.292
 20
5169692.574
 30
349.330
  0
POINT
  8
SHP_POINT
 10
666990.988
 20
5170233.305
 30
396.600
  0
POINT
  8
SHP_POINT
 10
666919.340
 20
5170272.615
 30
396.840
  0
POINT
  8
SHP_POINT
 10
667034.800
 20
5169379.780
 30
327.100
  0
POINT
  8
SHP_POINT
 10
667053.540
 20
5169343.861
 30
325.310
  0
POINT
  8
SHP_POINT
 10
666801.908
 20
5169775.475
 30
349.950
  0
POINT
  8
SHP_POINT
 10
667060.013
 20
5169731.414
 30
351.670
  0
POINT
  8
SHP_POINT
 10
666818.269
 20
5169938.072
 30
363.800
  0
POINT
  8
SHP_POINT
 10
667277.939
 20
5169723.972
 30
369.780
  0
POINT
  8
SHP_POINT
 10
666831.913
 20
5166820.108
 30
276.130
  0
ENDSEC
  0
EOF
